<svg viewBox="0 0 400 400" xmlns="http://www.w3.org/2000/svg">
  <circle cx="200" cy="200" r="200" fill="#FAF0DC"/>
  <ellipse cx="200" cy="330" rx="68" ry="10" fill="#D4C882" opacity="0.4"/>
  <path d="M162 158 L155 320 L245 320 L238 158 Z" fill="#FFF3CD" opacity="0.5"/>
  <path d="M165 161 L158 317 L242 317 L235 161 Z" fill="none" stroke="#E8C840" stroke-width="3"/>
  <rect x="162" y="166" width="76" height="146" rx="4" fill="#FFD700" opacity="0.3"/>
  <ellipse cx="200" cy="161" rx="38" ry="10" fill="#E8D040"/>
  <rect x="158" y="151" width="84" height="14" rx="7" fill="#E8D040"/>
  <circle cx="200" cy="240" r="32" fill="#FFD700" opacity="0.7"/>
  <circle cx="200" cy="240" r="26" fill="#FFF0A0" opacity="0.8"/>
  <line x1="200" y1="215" x2="200" y2="265" stroke="#E8B800" stroke-width="2"/>
  <line x1="175" y1="240" x2="225" y2="240" stroke="#E8B800" stroke-width="2"/>
  <line x1="182" y1="222" x2="218" y2="258" stroke="#E8B800" stroke-width="1.5"/>
  <line x1="218" y1="222" x2="182" y2="258" stroke="#E8B800" stroke-width="1.5"/>
  <rect x="196" y="112" width="8" height="55" rx="4" fill="#6a635a" opacity="0.5"/>
</svg>
