<svg viewBox="0 0 400 400" xmlns="http://www.w3.org/2000/svg">
  <circle cx="200" cy="200" r="200" fill="#FAF0DC"/>
  <ellipse cx="200" cy="330" rx="68" ry="10" fill="#D4A882" opacity="0.4"/>
  <path d="M162 158 L155 320 L245 320 L238 158 Z" fill="#FFD0A0" opacity="0.4"/>
  <path d="M165 161 L158 317 L242 317 L235 161 Z" fill="none" stroke="#E8803A" stroke-width="3"/>
  <rect x="162" y="166" width="76" height="146" rx="4" fill="#E8803A" opacity="0.35"/>
  <ellipse cx="200" cy="161" rx="38" ry="10" fill="#E8803A"/>
  <rect x="158" y="151" width="84" height="14" rx="7" fill="#E8803A"/>
  <circle cx="200" cy="245" r="34" fill="#FF8C00" opacity="0.75"/>
  <circle cx="200" cy="245" r="27" fill="#FFA040" opacity="0.6"/>
  <path d="M200 218 Q218 230 218 248 Q218 266 200 272 Q182 266 182 248 Q182 230 200 218 Z" fill="#E87820" opacity="0.4"/>
  <rect x="196" y="112" width="8" height="55" rx="4" fill="#6a635a" opacity="0.5"/>
</svg>
