<svg viewBox="0 0 400 400" xmlns="http://www.w3.org/2000/svg">
  <circle cx="200" cy="200" r="200" fill="#FAF0DC"/>
  <ellipse cx="200" cy="330" rx="68" ry="10" fill="#C4D882" opacity="0.35"/>
  <path d="M162 155 L155 320 L245 320 L238 155 Z" fill="#D4F0D4" opacity="0.3"/>
  <path d="M165 158 L158 317 L242 317 L235 158 Z" fill="none" stroke="#A8C4A2" stroke-width="3"/>
  <rect x="162" y="248" width="76" height="66" rx="4" fill="#A8C4A2" opacity="0.2"/>
  <rect x="165" y="165" width="70" height="80" rx="4" fill="#D4F0D4" opacity="0.4"/>
  <ellipse cx="200" cy="158" rx="37" ry="10" fill="#C8E0C4"/>
  <rect x="158" y="148" width="84" height="14" rx="7" fill="#C8E0C4"/>
  <ellipse cx="176" cy="220" rx="14" ry="20" fill="#A8C4A2" opacity="0.7" transform="rotate(-20,176,220)"/>
  <ellipse cx="200" cy="210" rx="16" ry="22" fill="#8AB890" opacity="0.7" transform="rotate(10,200,210)"/>
  <ellipse cx="222" cy="218" rx="13" ry="19" fill="#A8C4A2" opacity="0.65" transform="rotate(-8,222,218)"/>
  <circle cx="175" cy="268" r="10" fill="#E8F4E0" opacity="0.8"/>
  <circle cx="200" cy="275" r="8" fill="white" opacity="0.7"/>
  <circle cx="220" cy="265" r="9" fill="#E8F4E0" opacity="0.8"/>
  <rect x="196" y="110" width="8" height="60" rx="4" fill="#6a635a" opacity="0.5"/>
  <circle cx="176" cy="240" r="4" fill="#8AB890"/>
  <path d="M172 234 Q182 228 190 236" stroke="#8AB890" stroke-width="1.5" fill="none"/>
</svg>
