<svg viewBox="0 0 400 400" xmlns="http://www.w3.org/2000/svg">
  <circle cx="200" cy="200" r="200" fill="#FAF0DC"/>
  <ellipse cx="200" cy="285" rx="135" ry="20" fill="#C4B882" opacity="0.3"/>
  <ellipse cx="200" cy="275" rx="130" ry="16" fill="#D4C890" opacity="0.4"/>
  <ellipse cx="200" cy="255" rx="125" ry="50" fill="#D4C078" opacity="0.35"/>
  <ellipse cx="200" cy="248" rx="118" ry="46" fill="#E8D890"/>
  <ellipse cx="200" cy="244" rx="110" ry="42" fill="#F0E0A0"/>
  <path d="M115 248 Q145 235 175 240 Q200 245 225 238 Q255 231 288 244" stroke="#D4B840" stroke-width="4" fill="none" opacity="0.6"/>
  <path d="M118 255 Q150 244 180 248 Q200 252 222 246 Q252 240 284 252" stroke="#C8A830" stroke-width="3" fill="none" opacity="0.4"/>
  <ellipse cx="170" cy="245" rx="18" ry="10" fill="#A8C4A2" opacity="0.7"/>
  <ellipse cx="200" cy="240" rx="14" ry="9" fill="#A8C4A2" opacity="0.65"/>
  <ellipse cx="228" cy="244" rx="16" ry="10" fill="#A8C4A2" opacity="0.7"/>
</svg>
